<mxfile host="app.diagrams.net" modified="2023-07-11T08:26:31.329Z" agent="Mozilla/5.0 (Macintosh; Intel Mac OS X 10_15_7) AppleWebKit/537.36 (KHTML, like Gecko) Chrome/114.0.0.0 Safari/537.36" etag="594sxxCyQSM8KM7GJQe-" version="21.6.1" type="device">
  <diagram id="Yw1c3dqmzwF3fAv8jdtR" name="第 1 页">
    <mxGraphModel dx="909" dy="623" grid="1" gridSize="10" guides="1" tooltips="1" connect="1" arrows="1" fold="1" page="1" pageScale="1" pageWidth="827" pageHeight="1169" math="0" shadow="0">
      <root>
        <mxCell id="0" />
        <mxCell id="1" parent="0" />
        <mxCell id="sHmc_Wq3cUPe-5lqdyH_-4" value="&lt;span style=&quot;&quot;&gt;benchmark-proxy server&lt;/span&gt;" style="shape=umlLifeline;perimeter=lifelinePerimeter;whiteSpace=wrap;html=1;container=1;collapsible=0;recursiveResize=0;outlineConnect=0;" parent="1" vertex="1">
          <mxGeometry x="310" y="60" width="170" height="300" as="geometry" />
        </mxCell>
        <mxCell id="sHmc_Wq3cUPe-5lqdyH_-9" value="" style="html=1;points=[];perimeter=orthogonalPerimeter;" parent="sHmc_Wq3cUPe-5lqdyH_-4" vertex="1">
          <mxGeometry x="80" y="60" width="10" height="170" as="geometry" />
        </mxCell>
        <mxCell id="sHmc_Wq3cUPe-5lqdyH_-18" value="" style="html=1;points=[];perimeter=orthogonalPerimeter;" parent="sHmc_Wq3cUPe-5lqdyH_-4" vertex="1">
          <mxGeometry x="80" y="240" width="10" height="40" as="geometry" />
        </mxCell>
        <mxCell id="sHmc_Wq3cUPe-5lqdyH_-19" value="accumulation" style="edgeStyle=orthogonalEdgeStyle;html=1;align=left;spacingLeft=2;endArrow=block;rounded=0;entryX=1;entryY=0;" parent="sHmc_Wq3cUPe-5lqdyH_-4" target="sHmc_Wq3cUPe-5lqdyH_-18" edge="1">
          <mxGeometry relative="1" as="geometry">
            <mxPoint x="91" y="220" as="sourcePoint" />
            <Array as="points">
              <mxPoint x="121" y="220" />
            </Array>
          </mxGeometry>
        </mxCell>
        <mxCell id="sHmc_Wq3cUPe-5lqdyH_-20" value="statistic" style="html=1;verticalAlign=bottom;endArrow=open;dashed=1;endSize=8;rounded=0;" parent="sHmc_Wq3cUPe-5lqdyH_-4" target="sHmc_Wq3cUPe-5lqdyH_-8" edge="1">
          <mxGeometry relative="1" as="geometry">
            <mxPoint x="80" y="270" as="sourcePoint" />
            <mxPoint y="270" as="targetPoint" />
          </mxGeometry>
        </mxCell>
        <mxCell id="sHmc_Wq3cUPe-5lqdyH_-5" value="&lt;span style=&quot;&quot;&gt;real backend server&lt;/span&gt;" style="shape=umlLifeline;perimeter=lifelinePerimeter;whiteSpace=wrap;html=1;container=1;collapsible=0;recursiveResize=0;outlineConnect=0;" parent="1" vertex="1">
          <mxGeometry x="610" y="60" width="170" height="300" as="geometry" />
        </mxCell>
        <mxCell id="sHmc_Wq3cUPe-5lqdyH_-11" value="" style="html=1;points=[];perimeter=orthogonalPerimeter;" parent="sHmc_Wq3cUPe-5lqdyH_-5" vertex="1">
          <mxGeometry x="80" y="80" width="10" height="120" as="geometry" />
        </mxCell>
        <mxCell id="sHmc_Wq3cUPe-5lqdyH_-16" value="return 2" style="html=1;verticalAlign=bottom;endArrow=open;dashed=1;endSize=8;exitX=0;exitY=0.95;rounded=0;" parent="sHmc_Wq3cUPe-5lqdyH_-5" edge="1">
          <mxGeometry relative="1" as="geometry">
            <mxPoint x="-210" y="170" as="targetPoint" />
            <mxPoint x="80" y="169.9999999999999" as="sourcePoint" />
          </mxGeometry>
        </mxCell>
        <mxCell id="sHmc_Wq3cUPe-5lqdyH_-17" value="return 1" style="html=1;verticalAlign=bottom;endArrow=open;dashed=1;endSize=8;exitX=0;exitY=0.95;rounded=0;" parent="sHmc_Wq3cUPe-5lqdyH_-5" edge="1">
          <mxGeometry relative="1" as="geometry">
            <mxPoint x="-210" y="149.5" as="targetPoint" />
            <mxPoint x="80" y="149.4999999999999" as="sourcePoint" />
          </mxGeometry>
        </mxCell>
        <mxCell id="sHmc_Wq3cUPe-5lqdyH_-8" value="" style="shape=umlLifeline;participant=umlActor;perimeter=lifelinePerimeter;whiteSpace=wrap;html=1;container=1;collapsible=0;recursiveResize=0;verticalAlign=top;spacingTop=36;outlineConnect=0;" parent="1" vertex="1">
          <mxGeometry x="130" y="60" width="20" height="300" as="geometry" />
        </mxCell>
        <mxCell id="sHmc_Wq3cUPe-5lqdyH_-10" value="user request" style="html=1;verticalAlign=bottom;startArrow=oval;endArrow=block;startSize=8;rounded=0;" parent="1" target="sHmc_Wq3cUPe-5lqdyH_-9" edge="1">
          <mxGeometry relative="1" as="geometry">
            <mxPoint x="139.5" y="130" as="sourcePoint" />
          </mxGeometry>
        </mxCell>
        <mxCell id="sHmc_Wq3cUPe-5lqdyH_-12" value="request 1" style="html=1;verticalAlign=bottom;endArrow=block;entryX=0;entryY=0;rounded=0;" parent="1" target="sHmc_Wq3cUPe-5lqdyH_-11" edge="1">
          <mxGeometry relative="1" as="geometry">
            <mxPoint x="400" y="140" as="sourcePoint" />
          </mxGeometry>
        </mxCell>
        <mxCell id="sHmc_Wq3cUPe-5lqdyH_-13" value="return 3" style="html=1;verticalAlign=bottom;endArrow=open;dashed=1;endSize=8;exitX=0;exitY=0.95;rounded=0;" parent="1" source="sHmc_Wq3cUPe-5lqdyH_-11" edge="1">
          <mxGeometry relative="1" as="geometry">
            <mxPoint x="400" y="254" as="targetPoint" />
          </mxGeometry>
        </mxCell>
        <mxCell id="sHmc_Wq3cUPe-5lqdyH_-14" value="request 2" style="html=1;verticalAlign=bottom;endArrow=block;entryX=0;entryY=0;rounded=0;" parent="1" edge="1">
          <mxGeometry relative="1" as="geometry">
            <mxPoint x="400" y="160" as="sourcePoint" />
            <mxPoint x="690" y="160.0000000000001" as="targetPoint" />
          </mxGeometry>
        </mxCell>
        <mxCell id="sHmc_Wq3cUPe-5lqdyH_-15" value="request 3" style="html=1;verticalAlign=bottom;endArrow=block;entryX=0;entryY=0;rounded=0;" parent="1" edge="1">
          <mxGeometry relative="1" as="geometry">
            <mxPoint x="400" y="180" as="sourcePoint" />
            <mxPoint x="690" y="180.0000000000001" as="targetPoint" />
          </mxGeometry>
        </mxCell>
      </root>
    </mxGraphModel>
  </diagram>
</mxfile>
